{
	"asset":{
		"generator":"Khronos glTF Blender I/O v4.0.44",
		"version":"2.0"
	},
	"extensionsUsed":[
		"KHR_materials_transmission",
		"KHR_materials_ior"
	],
	"scene":0,
	"scenes":[
		{
			"name":"Scene",
			"nodes":[
				0,
				1,
				2,
				3
			]
		}
	],
	"nodes":[
		{
			"camera":0,
			"name":"Camera",
			"translation":[
				0,
				0,
				50
			]
		},
		{
			"mesh":0,
			"name":"Torus",
			"rotation":[
				0.1736481785774231,
				0,
				0,
				0.9848078489303589
			],
			"scale":[
				3,
				3.000000238418579,
				3.000000238418579
			]
		},
		{
			"mesh":1,
			"name":"Sphere.001"
		},
		{
			"mesh":2,
			"name":"Sphere",
			"scale":[
				0.5,
				0.5,
				0.5
			]
		}
	],
	"cameras":[
		{
			"name":"Camera",
			"perspective":{
				"aspectRatio":1.7777777777777777,
				"yfov":0.39959648408210363,
				"zfar":100,
				"znear":0.10000000149011612
			},
			"type":"perspective"
		}
	],
	"animations":[
		{
			"channels":[
				{
					"sampler":0,
					"target":{
						"node":1,
						"path":"rotation"
					}
				}
			],
			"name":"TorusAction",
			"samplers":[
				{
					"input":15,
					"interpolation":"LINEAR",
					"output":16
				}
			]
		},
		{
			"channels":[
				{
					"sampler":0,
					"target":{
						"node":2,
						"path":"rotation"
					}
				}
			],
			"name":"Sphere.001Action",
			"samplers":[
				{
					"input":15,
					"interpolation":"LINEAR",
					"output":17
				}
			]
		},
		{
			"channels":[
				{
					"sampler":0,
					"target":{
						"node":3,
						"path":"translation"
					}
				}
			],
			"name":"SphereAction",
			"samplers":[
				{
					"input":15,
					"interpolation":"LINEAR",
					"output":18
				}
			]
		}
	],
	"materials":[
		{
			"doubleSided":true,
			"name":"toro",
			"pbrMetallicRoughness":{
				"baseColorTexture":{
					"index":0
				},
				"roughnessFactor":0.20818504691123962
			}
		},
		{
			"alphaMode":"BLEND",
			"doubleSided":true,
			"emissiveFactor":[
				4.76837158203125e-07,
				4.76837158203125e-07,
				4.76837158203125e-07
			],
			"extensions":{
				"KHR_materials_transmission":{
					"transmissionFactor":1
				},
				"KHR_materials_ior":{
					"ior":1.4500000476837158
				}
			},
			"name":"Material.004",
			"pbrMetallicRoughness":{
				"baseColorFactor":[
					1,
					1,
					1,
					0.14590750634670258
				],
				"roughnessFactor":0
			}
		},
		{
			"doubleSided":true,
			"name":"Material.003",
			"pbrMetallicRoughness":{
				"baseColorFactor":[
					0.7992380261421204,
					0.2050696462392807,
					0.3466789722442627,
					1
				],
				"metallicFactor":0.7257142663002014,
				"roughnessFactor":0.21999956667423248
			}
		}
	],
	"meshes":[
		{
			"name":"Torus",
			"primitives":[
				{
					"attributes":{
						"POSITION":0,
						"NORMAL":1,
						"TEXCOORD_0":2,
						"TANGENT":3
					},
					"indices":4,
					"material":0
				}
			]
		},
		{
			"name":"Sphere.002",
			"primitives":[
				{
					"attributes":{
						"POSITION":5,
						"NORMAL":6,
						"TEXCOORD_0":7,
						"TANGENT":8
					},
					"indices":9,
					"material":1
				}
			]
		},
		{
			"name":"Sphere.001",
			"primitives":[
				{
					"attributes":{
						"POSITION":10,
						"NORMAL":11,
						"TEXCOORD_0":12,
						"TANGENT":13
					},
					"indices":14,
					"material":2
				}
			]
		}
	],
	"textures":[
		{
			"sampler":0,
			"source":0
		}
	],
	"images":[
		{
			"mimeType":"image/png",
			"name":"QuartziteDenali002_ROUGHNESS_8K_METALNESS",
			"uri":"QuartziteDenali002_ROUGHNESS_8K_METALNESS.png"
		}
	],
	"accessors":[
		{
			"bufferView":0,
			"componentType":5126,
			"count":38197,
			"max":[
				1.122392177581787,
				1.1106432676315308,
				1.2091553211212158
			],
			"min":[
				-1.1223926544189453,
				-1.1106433868408203,
				-1.2091553211212158
			],
			"type":"VEC3"
		},
		{
			"bufferView":1,
			"componentType":5126,
			"count":38197,
			"type":"VEC3"
		},
		{
			"bufferView":2,
			"componentType":5126,
			"count":38197,
			"type":"VEC2"
		},
		{
			"bufferView":3,
			"componentType":5126,
			"count":38197,
			"type":"VEC4"
		},
		{
			"bufferView":4,
			"componentType":5123,
			"count":221184,
			"type":"SCALAR"
		},
		{
			"bufferView":5,
			"componentType":5126,
			"count":559,
			"max":[
				3.9999988079071045,
				4,
				3.99999737739563
			],
			"min":[
				-3.9999961853027344,
				-4,
				-4
			],
			"type":"VEC3"
		},
		{
			"bufferView":6,
			"componentType":5126,
			"count":559,
			"type":"VEC3"
		},
		{
			"bufferView":7,
			"componentType":5126,
			"count":559,
			"type":"VEC2"
		},
		{
			"bufferView":8,
			"componentType":5126,
			"count":559,
			"type":"VEC4"
		},
		{
			"bufferView":9,
			"componentType":5123,
			"count":2880,
			"type":"SCALAR"
		},
		{
			"bufferView":10,
			"componentType":5126,
			"count":559,
			"max":[
				0.9999997019767761,
				1,
				0.9999993443489075
			],
			"min":[
				-0.9999990463256836,
				-1,
				-1
			],
			"type":"VEC3"
		},
		{
			"bufferView":11,
			"componentType":5126,
			"count":559,
			"type":"VEC3"
		},
		{
			"bufferView":12,
			"componentType":5126,
			"count":559,
			"type":"VEC2"
		},
		{
			"bufferView":13,
			"componentType":5126,
			"count":559,
			"type":"VEC4"
		},
		{
			"bufferView":14,
			"componentType":5123,
			"count":2880,
			"type":"SCALAR"
		},
		{
			"bufferView":15,
			"componentType":5126,
			"count":300,
			"max":[
				12.5
			],
			"min":[
				0.041666666666666664
			],
			"type":"SCALAR"
		},
		{
			"bufferView":16,
			"componentType":5126,
			"count":300,
			"type":"VEC4"
		},
		{
			"bufferView":17,
			"componentType":5126,
			"count":300,
			"type":"VEC4"
		},
		{
			"bufferView":18,
			"componentType":5126,
			"count":300,
			"type":"VEC3"
		}
	],
	"bufferViews":[
		{
			"buffer":0,
			"byteLength":458364,
			"byteOffset":0,
			"target":34962
		},
		{
			"buffer":0,
			"byteLength":458364,
			"byteOffset":458364,
			"target":34962
		},
		{
			"buffer":0,
			"byteLength":305576,
			"byteOffset":916728,
			"target":34962
		},
		{
			"buffer":0,
			"byteLength":611152,
			"byteOffset":1222304,
			"target":34962
		},
		{
			"buffer":0,
			"byteLength":442368,
			"byteOffset":1833456,
			"target":34963
		},
		{
			"buffer":0,
			"byteLength":6708,
			"byteOffset":2275824,
			"target":34962
		},
		{
			"buffer":0,
			"byteLength":6708,
			"byteOffset":2282532,
			"target":34962
		},
		{
			"buffer":0,
			"byteLength":4472,
			"byteOffset":2289240,
			"target":34962
		},
		{
			"buffer":0,
			"byteLength":8944,
			"byteOffset":2293712,
			"target":34962
		},
		{
			"buffer":0,
			"byteLength":5760,
			"byteOffset":2302656,
			"target":34963
		},
		{
			"buffer":0,
			"byteLength":6708,
			"byteOffset":2308416,
			"target":34962
		},
		{
			"buffer":0,
			"byteLength":6708,
			"byteOffset":2315124,
			"target":34962
		},
		{
			"buffer":0,
			"byteLength":4472,
			"byteOffset":2321832,
			"target":34962
		},
		{
			"buffer":0,
			"byteLength":8944,
			"byteOffset":2326304,
			"target":34962
		},
		{
			"buffer":0,
			"byteLength":5760,
			"byteOffset":2335248,
			"target":34963
		},
		{
			"buffer":0,
			"byteLength":1200,
			"byteOffset":2341008
		},
		{
			"buffer":0,
			"byteLength":4800,
			"byteOffset":2342208
		},
		{
			"buffer":0,
			"byteLength":4800,
			"byteOffset":2347008
		},
		{
			"buffer":0,
			"byteLength":3600,
			"byteOffset":2351808
		}
	],
	"samplers":[
		{
			"magFilter":9729,
			"minFilter":9987
		}
	],
	"buffers":[
		{
			"byteLength":2355408,
			"uri":"basta1.bin"
		}
	]
}
